:SAMPLES-PER-SECOND 30
:FULLY-SPECIFIED
:DEGREES
616
root  -11.3474 35.6961 4.58455 -14.1743 -76.019 7.14294
RightUpLeg  -13.7849 -6.31887 8.04722
RightLeg  64.0104 -7.56809 -16.9729
RightFoot  -13.5565 0.148264 12.5461
RightToes  6.35927e-011 1.30204e-014 -6.03759e-014
Spine  28.6274 0.12559 -4.98833
Spine1  -18.4438 -1.2945 7.16877
HEad  -61.4469 -0.357024 -10.4918
LeftShoulder1  0.32495 1.704 -10.8885
LeftArm  -11.1291 28.9037 -26.0636
LeftForeArm  -118.122 -52.8288 -171.098
LeftHand  -1.34871 1.63661 39.4811
RightShoulder  0.367949 -1.72653 14.001
RightArm  -22.2707 -49.1446 28.2184
RightForeArm  -126.853 56.5234 169.076
RightHand  -3.11589 2.67794 -43.0307
LeftUpLeg  -43.488 28.8243 -3.15403
LeftLeg  73.9071 -0.339283 -0.24539
LeftFoot  6.05537 4.08084 -26.5989
LeftToes  7.40077e-010 7.2695e-011 -6.03601e-011
617
root  -12.2615 35.8925 4.57736 -19.733 -74.5226 11.8214
RightUpLeg  -10.1455 -5.63405 8.61126
RightLeg  62.6754 -11.6375 -23.641
RightFoot  -13.8885 0.180186 12.2549
RightToes  6.35927e-011 1.30204e-014 -6.03759e-014
Spine  27.7564 -0.687904 -6.0358
Spine1  -19.6446 -2.07287 4.5411
HEad  -64.1385 -2.02928 -8.4064
LeftShoulder1  0.401797 1.2131 -10.1862
LeftArm  -13.6503 30.3114 -19.925
LeftForeArm  -121.73 -57.7357 -168.327
LeftHand  -0.756255 3.26704 43.1462
RightShoulder  0.356527 -1.75937 13.7035
RightArm  -29.4961 -49.5712 25.8105
RightForeArm  -155.022 63.7201 162.917
RightHand  -3.46926 2.39521 -48.8099
LeftUpLeg  -36.8357 29.6104 -8.29886
LeftLeg  62.8816 0.209576 1.19216
LeftFoot  6.70618 3.47503 -21.672
LeftToes  7.40077e-010 7.2695e-011 -6.03601e-011
618
root  -13.2327 36.2427 4.82009 -21.0497 -76.2845 13.3518
RightUpLeg  -8.67132 -10.575 5.66855
RightLeg  61.5206 -9.87467 -19.3363
RightFoot  -11.5185 -0.0620291 12.6408
RightToes  6.35927e-011 1.30204e-014 -6.03759e-014
Spine  26.3194 -1.07881 -4.59514
Spine1  -22.0511 -1.85487 1.53977
HEad  -64.0906 -3.06537 -7.62314
LeftShoulder1  0.290431 1.78127 -9.47085
LeftArm  -27.9451 34.2867 -17.4096
LeftForeArm  -166.373 -69.2273 -156.812
LeftHand  1.56182 8.53217 52.8215
RightShoulder  0.355184 -1.73058 13.2481
RightArm  -43.3528 -49.9219 25.9915
RightForeArm  157.254 70.907 150.662
RightHand  -3.96025 2.22327 -56.0564
LeftUpLeg  -31.4944 35.422 -10.3665
LeftLeg  55.2391 0.062906 0.619626
LeftFoot  1.72234 1.12147 -9.40916
LeftToes  7.40077e-010 7.2695e-011 -6.03601e-011
619
root  -14.1975 36.4339 5.06881 -18.1591 -78.6553 10.3613
RightUpLeg  -9.54442 -19.5336 0.0041873
RightLeg  64.1353 -3.02265 -7.05946
RightFoot  -0.269575 -1.29072 13.2771
RightToes  6.35927e-011 1.30204e-014 -6.03759e-014
Spine  25.3938 -0.951169 -2.9621
Spine1  -25.4006 -1.26271 1.36623
HEad  -62.3201 -3.08488 -8.10883
LeftShoulder1  0.198131 2.33904 -9.66116
LeftArm  -46.1403 40.0796 -21.7739
LeftForeArm  133.602 -74.4149 -139.85
LeftHand  3.17235 11.4298 55.1612
RightShoulder  0.414924 -1.43981 13.2821
RightArm  -54.3364 -50.5083 28.051
RightForeArm  129.282 70.7417 146.42
RightHand  -4.25045 2.11831 -60.0091
LeftUpLeg  -27.9944 41.9385 -8.59587
LeftLeg  53.4315 -0.270921 0.118319
LeftFoot  -5.17358 0.0457457 -1.20788
LeftToes  7.40077e-010 7.2695e-011 -6.03601e-011
620
root  -15.0295 36.3567 5.18059 -15.3851 -78.2393 6.11603
RightUpLeg  -10.3808 -31.1726 -8.69388
RightLeg  69.9122 1.71809 4.25605
RightFoot  22.115 -3.95666 13.5329
RightToes  6.35927e-011 1.30204e-014 -6.03759e-014
Spine  24.9085 -0.957251 -3.95509
Spine1  -27.5087 -1.41422 3.72206
HEad  -60.7822 -2.44223 -8.53492
LeftShoulder1  0.177873 2.52065 -10.8055
LeftArm  -52.9307 42.7019 -26.9216
LeftForeArm  127.724 -69.2011 -148.444
LeftHand  3.46839 11.6955 57.6434
RightShoulder  0.498365 -1.07412 13.7128
RightArm  -50.72 -51.1441 30.0602
RightForeArm  142.692 64.2381 156.584
RightHand  -4.88907 3.02607 -61.5395
LeftUpLeg  -24.7116 43.4524 -4.7228
LeftLeg  55.6877 -0.853075 -0.821563
LeftFoot  -7.58229 0.120483 -2.22844
LeftToes  7.40077e-010 7.2695e-011 -6.03601e-011
621
root  -15.8002 36.0143 5.24949 -14.7402 -76.1922 3.14972
RightUpLeg  -8.28166 -42.8491 -19.7165
RightLeg  75.116 1.12493 3.27041
RightFoot  38.1646 -6.12456 13.8896
RightToes  6.35927e-011 1.30204e-014 -6.03759e-014
Spine  23.5429 -1.12735 -5.09572
Spine1  -26.4946 -1.95501 4.42928
HEad  -60.7532 -2.32571 -8.47008
LeftShoulder1  0.25004 2.20215 -12.0197
LeftArm  -37.7961 39.4759 -28.1482
LeftForeArm  162.324 -60.3567 -161.965
LeftHand  2.50587 9.58869 59.7039
RightShoulder  0.550119 -0.896423 14.3569
RightArm  -33.9987 -50.4474 32.8243
RightForeArm  -179.178 56.8463 165.671
RightHand  -4.21722 2.75603 -54.7554
LeftUpLeg  -21.7046 40.6561 -0.90631
LeftLeg  59.4545 -1.50765 -2.14807
LeftFoot  -7.32787 0.261072 -6.20457
LeftToes  7.40077e-010 7.2695e-011 -6.03601e-011
622
root  -16.5799 35.8896 5.35679 -9.38971 -76.0101 -4.25214
RightUpLeg  -5.59531 -50.0459 -28.1434
RightLeg  79.5965 -0.92415 -8.05447
RightFoot  34.5679 -5.46886 13.5002
RightToes  6.35927e-011 1.30204e-014 -6.03759e-014
Spine  20.8419 -0.927514 -2.15303
Spine1  -23.4634 -1.58718 1.76873
HEad  -61.6148 -2.96935 -8.54897
LeftShoulder1  0.448718 1.20469 -12.4464
LeftArm  -14.3816 34.3706 -29.6391
LeftForeArm  -141.738 -54.9756 -169.1
LeftHand  -0.652677 3.73443 46.2298
RightShoulder  0.582196 -0.848252 15.2644
RightArm  -18.5851 -49.3886 36.0933
RightForeArm  -136.871 53.7163 169.893
RightHand  -2.52836 1.35092 -42.631
LeftUpLeg  -18.5959 37.7235 3.35835
LeftLeg  61.5069 -1.30215 -1.94384
LeftFoot  -8.63535 0.247065 -8.29594
LeftToes  7.40077e-010 7.2695e-011 -6.03601e-011
623
root  -17.2265 35.8639 5.39576 -1.68945 -77.6303 -13.3522
RightUpLeg  -6.89315 -50.6455 -29.507
RightLeg  82.8676 -1.28409 -16.3989
RightFoot  19.1962 -4.01913 15.135
RightToes  6.35927e-011 1.30204e-014 -6.03759e-014
Spine  18.7295 -0.00261789 1.76083
Spine1  -21.6291 -0.327466 -1.13972
HEad  -62.1352 -3.22014 -8.9135
LeftShoulder1  0.635247 0.187444 -12.0263
LeftArm  -4.49359 33.6983 -28.3978
LeftForeArm  -107.443 -53.5067 -170.987
LeftHand  -1.95911 -0.251354 38.5296
RightShoulder  0.610984 -0.795275 15.9675
RightArm  -14.401 -48.8945 34.0189
RightForeArm  -118.612 53.8502 170.552
RightHand  -2.8895 2.49899 -40.886
LeftUpLeg  -16.2915 34.2397 6.30796
LeftLeg  62.3429 0.589031 1.90667
LeftFoot  -11.6771 0.0331055 -10.337
LeftToes  7.40077e-010 7.2695e-011 -6.03601e-011
624
root  -17.7304 35.7757 5.23962 2.51178 -78.6802 -18.8804
RightUpLeg  -9.72273 -45.3789 -26.4285
RightLeg  83.5168 -1.21602 -18.2325
RightFoot  11.3017 -3.23707 16.422
RightToes  6.35927e-011 1.30204e-014 -6.03759e-014
Spine  18.8813 0.852518 2.46182
Spine1  -22.329 0.493906 -0.994273
HEad  -62.1492 -2.57248 -9.0516
LeftShoulder1  0.61897 0.161445 -11.2982
LeftArm  -10.6595 35.4326 -23.9881
LeftForeArm  -119.272 -55.1301 -169.798
LeftHand  -0.80945 3.33294 46.7591
RightShoulder  0.589305 -0.84991 15.5684
RightArm  -21.3131 -49.2774 28.496
RightForeArm  -138.266 57.4655 167.969
RightHand  -3.20555 2.33565 -46.062
LeftUpLeg  -15.2939 26.732 5.91127
LeftLeg  63.1823 4.16507 9.58994
LeftFoot  -13.045 -0.130871 -14.5759
LeftToes  7.40077e-010 7.2695e-011 -6.03601e-011
625
root  -18.1822 35.7007 4.93303 1.52484 -78.7919 -19.6386
RightUpLeg  -10.6113 -35.7665 -21.3465
RightLeg  81.389 -1.59047 -15.9524
RightFoot  13.0705 -3.95552 18.52
RightToes  6.35927e-011 1.30204e-014 -6.03759e-014
Spine  20.1257 1.20071 1.11761
Spine1  -23.4489 0.689573 1.0293
HEad  -62.1774 -1.95553 -8.92503
LeftShoulder1  0.46186 0.954945 -10.8829
LeftArm  -24.461 40.0455 -18.5199
LeftForeArm  -166.665 -62.6729 -162.879
LeftHand  1.28163 8.16746 49.5553
RightShoulder  0.509837 -1.06165 14.1107
RightArm  -33.8442 -52.2765 24.7952
RightForeArm  179.417 63.9449 160.769
RightHand  -2.99696 1.23977 -49.5561
LeftUpLeg  -14.3764 15.7657 3.03304
LeftLeg  64.5649 8.72484 19.9249
LeftFoot  -11.4725 0.0495573 -18.7272
LeftToes  7.40077e-010 7.2695e-011 -6.03601e-011
626
root  -18.6216 35.6307 4.53837 -0.724365 -79.3722 -19.074
RightUpLeg  -10.2355 -23.3344 -13.5371
RightLeg  77.1277 -2.52911 -14.0394
RightFoot  14.4654 -4.78733 21.1724
RightToes  6.35927e-011 1.30204e-014 -6.03759e-014
Spine  20.3302 1.5396 0.123628
Spine1  -22.9337 0.869676 1.94081
HEad  -62.2593 -1.99812 -8.85417
LeftShoulder1  0.392244 1.34955 -10.9622
LeftArm  -38.7071 43.8334 -17.6461
LeftForeArm  150.571 -71.4931 -148.255
LeftHand  0.964746 7.47481 47.5577
RightShoulder  0.454471 -1.21639 13.0195
RightArm  -46.191 -54.4502 25.5878
RightForeArm  145.243 68.7455 152.026
RightHand  -3.76779 1.96237 -54.9257
LeftUpLeg  -12.8373 5.65771 -0.379751
LeftLeg  66.6279 12.9989 30.4142
LeftFoot  -8.76147 0.51437 -20.5008
LeftToes  7.40077e-010 7.2695e-011 -6.03601e-011
627
root  -19.0299 35.6099 4.09541 -1.19867 -80.3107 -19.498
RightUpLeg  -8.93684 -10.7862 -4.17373
RightLeg  73.1924 -5.29077 -19.915
RightFoot  11.2956 -4.24426 21.3085
RightToes  6.35927e-011 1.30204e-014 -6.03759e-014
Spine  18.9216 1.5058 -0.115391
Spine1  -21.3275 0.896418 2.09278
HEad  -61.9456 -2.13398 -8.67347
LeftShoulder1  0.481167 0.912372 -11.3542
LeftArm  -49.5137 45.0082 -20.3793
LeftForeArm  123.008 -75.8862 -133.071
LeftHand  3.642 11.8181 58.4074
RightShoulder  0.493639 -1.05933 13.341
RightArm  -51.9895 -54.561 28.1922
RightForeArm  136.015 68.4704 150.984
RightHand  -4.76564 2.5075 -63.6127
LeftUpLeg  -11.0229 -1.25718 -2.5522
LeftLeg  67.8749 15.7236 36.9602
LeftFoot  -7.01119 0.830346 -20.671
LeftToes  7.40077e-010 7.2695e-011 -6.03601e-011
628
root  -19.3369 35.5108 3.63647 -3.78357 -80.5757 -16.4418
RightUpLeg  -7.23947 -2.21028 3.03727
RightLeg  71.8256 -9.46579 -30.229
RightFoot  5.2442 -2.73571 18.8093
RightToes  6.35927e-011 1.30204e-014 -6.03759e-014
Spine  16.6951 0.769745 -0.686699
Spine1  -19.818 0.434955 2.29213
HEad  -61.3222 -1.98567 -8.15491
LeftShoulder1  0.561273 0.584559 -12.1144
LeftArm  -50.0697 45.4361 -23.9155
LeftForeArm  130.992 -72.4345 -142.637
LeftHand  5.43222 13.6313 66.429
RightShoulder  0.596424 -0.676832 14.3399
RightArm  -46.1741 -53.3637 31.2904
RightForeArm  156.929 62.3823 159.673
RightHand  -4.66333 2.523 -61.2268
LeftUpLeg  -10.5957 -3.84734 -2.9987
LeftLeg  67.7118 15.7444 36.7331
LeftFoot  -7.58896 0.733704 -20.8429
LeftToes  7.40077e-010 7.2695e-011 -6.03601e-011
629
root  -19.3663 35.2853 3.27726 -10.9771 -80.5769 -7.37054
RightUpLeg  -6.43399 0.340156 4.66505
RightLeg  71.0904 -11.6089 -34.0811
RightFoot  -3.49904 -1.24175 17.9745
RightToes  6.35927e-011 1.30204e-014 -6.03759e-014
Spine  14.9601 0.0698167 -0.509711
Spine1  -18.8989 0.0954405 0.435852
HEad  -61.7619 -2.30001 -7.48843
LeftShoulder1  0.567657 0.682725 -13.083
LeftArm  -37.4637 42.5081 -29.045
LeftForeArm  165.235 -63.1226 -160.2
LeftHand  2.30984 9.55669 56.3101
RightShoulder  0.674045 -0.377529 14.8427
RightArm  -31.2585 -50.684 35.6871
RightForeArm  -171.205 54.0752 167.617
RightHand  -2.6452 0.836229 -47.0755
LeftUpLeg  -13.2527 -0.537622 -1.96249
LeftLeg  67.5513 12.8288 31.2514
LeftFoot  -8.90091 0.511682 -21.3644
LeftToes  7.40077e-010 7.2695e-011 -6.03601e-011
